<svg id="Layer_1" data-name="Layer 1" xmlns="http://www.w3.org/2000/svg" viewBox="0 0 917.13 789.01"><path d="M1283.7,973.34c-5.1,9.29-13.31,11.28-23.33,11.53-26,.64-52.28.19-77.95,3.77-90.31,12.6-156.34,59.27-193.65,143.7-19.77,44.74-27,92.11-27.56,140.71-.06,5.75.28,11.51-.18,17.22-.87,10.69-7.69,17.13-16.92,16.54-9.59-.62-15.46-7.27-15.73-17.83-.37-14.13-.2-28.29-1.23-42.37-4.09-56.14-18.17-109.17-49.83-156.58a53.94,53.94,0,0,1-3.08-5.1c-3.74-7.2-2-14.71,4.34-18.53s14-2.05,18.45,4.82c6.31,9.84,12.52,19.79,18.06,30.07,12.93,24,22.06,49.53,29.86,76.36.69-2,1.52-4,2.06-6.11,11.65-44.61,30.63-85.52,61-120.7,34.49-40,77.86-65.86,128.4-80.22a26.93,26.93,0,0,0,6.6-2.71c-108.54-29.92-170.34-103.48-198.13-210-27.77,106.09-89.4,179.78-199.49,210,3.72,1.39,5.57,2.23,7.51,2.77a271.56,271.56,0,0,1,96.22,48.73c7.36,5.81,9.17,13.83,4.38,20.15-4.67,6.15-12.49,6.83-20.06,1.61-3.09-2.12-5.83-4.81-9.06-6.68-16.19-9.38-31.91-19.85-48.88-27.54-34.46-15.62-71.36-21.12-109-22.15-14.79-.41-29.6,0-44.39-.39a16.12,16.12,0,0,1-15.4-11.51c-1.87-6.68.14-14.27,5.73-17.72a23.48,23.48,0,0,1,11.12-3.28c19.2-.62,38.46,0,57.61-1.25,50-3.34,96.86-16.55,138.44-45.67,37.83-26.5,64.39-62,82.21-104.15,18.66-44.13,26.62-90.44,26.46-138.25,0-5.74-.21-11.5.15-17.22.62-9.72,7.6-16.21,16.77-16.05,9,.17,15.66,7.21,16,16.86.55,17.22.28,34.5,1.79,51.64,4.86,55.47,20.34,107.57,52.88,153.45,32.34,45.59,76.66,74.2,130.29,88.78a328,328,0,0,0,83.8,11.16c10.16.08,20.34.51,30.48.1s18.28,2.06,23.3,11.47Z" transform="translate(-366.57 -591.99)"/><path d="M366.57,740.06c4.65-8,11.74-10,20.68-9.8,22.49.56,44.49-2,64.81-12.91,23.05-12.4,37.4-31.68,45.3-56.23,5.6-17.41,7.72-35.3,7.63-53.52,0-6.55,2.73-11.6,8.91-14.19,5.57-2.33,11.63-2,15.18,2.74,2.9,3.89,4.26,9.36,5,14.33,2.54,15.85,2.59,32.35,7,47.59,13,44.55,44.8,68.66,91.77,71.78,8.14.55,16.33.42,24.49.64,8.81.23,15,6,15.11,14.24s-5.77,14.27-14.6,14.89c-13.63,1-27.37,1.1-40.84,3.07-8.8,1.28-17.23,5.16-25.8,8-2.72.89-5.28,2.29-8,3a13,13,0,0,1-15.53-6.91,13.15,13.15,0,0,1,4-16,78.72,78.72,0,0,1,7.62-4.72c-11.73-9.3-24.7-17.47-34.87-28.26s-17.34-24-25.88-36.29C506.73,709.13,487,730.84,457.35,745c29.63,14.22,49.45,35.87,62.19,65.65,1.55-3.14,2.5-5,3.42-7,4.32-9,11.1-12.43,18.39-9.35,7.88,3.33,9.58,10.38,6.42,20.13-4.53,14-8.75,28.14-11.93,42.49-1.74,7.86-1.12,16.25-1.48,24.41-.45,10.22-6.29,16.67-15.09,16.54-8.36-.12-14.53-6.64-14.48-16.49.11-20.73-2.15-41-10.22-60.28-16.54-39.43-47.43-58.2-89.14-60.9a190.13,190.13,0,0,0-20.52-.6c-8.47.38-14.5-2.81-18.34-10.29Z" transform="translate(-366.57 -591.99)"/><path d="M674.73,1162.67c-13,29.93-32.72,51.42-62.25,65.54,29.67,14,49.35,35.77,62.41,65.78,12.93-30,32.32-51.78,62.07-65.56-3.13-1.72-5.11-2.73-7-3.85-7-4.14-9.65-11.43-6.54-18a12.8,12.8,0,0,1,17.47-6.19c22.63,11.52,46.83,13.35,71.51,13.41,9.46,0,15.44,6.14,15.26,14.65s-6.27,14.32-15.67,14.34c-19.7.06-39.25.82-58,7.88-30.29,11.37-49.12,33.43-57.24,64-4.32,16.27-5.57,33.41-7.46,50.24-1.17,10.38-5.54,16.14-14.37,16.17-9.12,0-13.8-6-14.87-16.56-1.64-16.17-2.57-32.68-6.7-48.29-12.69-48.05-48.65-70.11-93.52-72.86-7.71-.47-15.45-.36-23.17-.61-8.79-.28-14.64-6.21-14.6-14.62,0-8.12,5.69-13.59,14.26-14.33,16.23-1.4,32.85-1.23,48.57-4.89,34.89-8.13,57-31,67.87-64.95,5.62-17.64,7.54-35.79,7.68-54.21,0-6.45,3.29-11,9.16-13.27s11.62-1.18,15.68,3.66c2.09,2.51,3.83,6.28,3.8,9.45-.28,25.13,4.33,49.11,14.74,72.06,3.27,7.2.27,14.22-6.22,17.4s-13.81.69-17.91-6.54C678.15,1169.82,676.92,1167.05,674.73,1162.67Z" transform="translate(-366.57 -591.99)"/></svg>