<svg id="Layer_1" data-name="Layer 1" xmlns="http://www.w3.org/2000/svg" viewBox="0 0 907.9 938.67"><path d="M303,985c1.82-7.71,3.53-15.46,5.48-23.14,28.56-112.25,158.17-164.76,256.65-104,11.09,6.85,14.43,15.09,9.57,23.61-5.06,8.88-14.19,9.83-25.91,3.06-48.17-27.85-97.3-29.36-145.15-1-47.13,27.89-70.29,71.09-69.1,125.89,1.27,58.52,40.71,109.92,96.61,128.46A140.65,140.65,0,0,0,596.47,933.15c-1.14-1.93-2.39-3.8-3.46-5.77-5-9.16-3.18-17.88,4.69-22.63s16.29-2.26,22.12,6.72c11.46,17.66,19.75,36.75,23.52,57.46,12.49,68.46-8.37,125-61.42,169.9l-7.24,6.11h42.07c28.77,0,30.46,1.68,30.46,30.38,0,5.12.06,10.25,0,15.38-.42,27.88-20.23,47.93-48,48.13-32,.22-64.11.05-96.17.06H491c0,10.63-.3,20.73.25,30.79.11,2,3.32,4,5.23,5.82,6.37,6.15,14.09,11.39,18.8,18.61,3.81,5.85,7.44,7.36,13.71,7.35q110.6-.23,221.18-.1,116.85,0,233.69.13c6.71,0,10.52-1.62,14.44-7.78,4.44-7,11.41-12.84,18.33-17.69,4.25-3,6.17-5.44,5.95-10.52-.36-8.55-.1-17.13-.1-26.61-4.15,0-7.26,0-10.38,0-13.59-.1-20.84-5.66-20.69-15.86s7.19-15.26,21.17-15.27q64.92,0,129.83,0H1152c24.32,0,29.16-5.63,25.81-30.81H897.4c0,4.83-.18,9.51,0,14.17.47,10.11,6.15,16.1,16.28,16.52,9.6.4,19.23,0,28.84.17,10.5.21,17.16,6.32,17.19,15.4s-6.69,15.42-17,15.63c-10.58.22-21.17.37-31.73-.07a46.53,46.53,0,0,1-44.66-45.44c-.27-10.25-.21-20.52,0-30.77.21-11.77,6-17.43,18.05-17.55,17.2-.17,34.4,0,54,0-5.08-4.33-8.33-7.13-11.61-9.9-68.66-58-80.59-159.76-27.26-232.48,53-72.33,153.32-91.71,229.24-44.3,1.08.68,2.2,1.32,3.24,2.06,8,5.74,10.17,14.25,5.48,21.72s-13.58,9.71-21.92,4.59a154.21,154.21,0,0,0-60-21.93C982.39,854.38,910.24,908,899.31,981.19c-11.62,77.68,39.62,150.35,114.85,161.58,58.69,8.76,107-10.91,140.12-60s32.89-101,3.37-152.45c-1.43-2.5-3.21-5-3.9-7.68-2-8.12.56-14.58,8.18-18.49,7.18-3.67,14.94-1.46,20,6.16a168.85,168.85,0,0,1,24.78,60.08c1.14,5.58,2.79,11.06,4.21,16.59v34.63c-1.06,3.66-2.46,7.26-3.14,11q-11.82,65.65-64,107.14a65,65,0,0,0-5,5.21c17,0,32.38.53,47.69-.18,10.6-.5,18.78,2.38,24.47,11.47v44.24a27.17,27.17,0,0,0-2.36,4.14c-8.78,24.29-26.32,34.8-51.8,34.39-30.76-.49-61.53-.13-92.3-.09-3.38,0-6.77.28-10.85.46,0,9.26.32,17.56-.11,25.82-.3,5.58,1.83,8.33,6.75,11,18.19,9.91,27.34,28.9,24.11,48.3a47.28,47.28,0,0,1-38.83,38.89c-18.93,3.32-38.46-6.1-48.17-24.28-2.79-5.22-5.93-6.37-11.21-6.36q-96.63.2-193.26.12a69,69,0,0,0-7.95,1c24.55,40.88,48.36,80.71,72.54,120.32,1.36,2.22,5.81,3.5,8.86,3.57,15,.37,30.17-.52,45.15.56,5.21.38,11.58,4,14.81,8.18,5.39,7,2.14,14.33-7.75,22.5H595.4c-7.12-4.6-12.81-10.15-10-19.59,2.86-9.8,10.55-11.74,19.68-11.55,13.46.27,26.94-.28,40.38.22,6.29.23,9.75-1.88,12.94-7.28,21.69-36.7,43.75-73.18,65.65-109.75,1.37-2.29,2.42-4.78,3.71-7.36a17,17,0,0,0-2.88-.72c-66.67-.06-133.35-.16-200,.13-2.8,0-6.62,3.09-8.22,5.78-9,15.22-22,24.07-39.69,25-21.16,1.06-40.59-13-46.62-33.14-6.25-20.81,2.38-42.46,21.21-54,3-1.82,7.24-4.61,7.48-7.27.9-9.77.36-19.67.36-30.58H448.07c-31.42,0-62.83,0-94.25-.05a66.15,66.15,0,0,1-13.35-1.14c-20.41-4.33-31.34-18.4-37.44-37.23v-44.24c4.52-8.66,11.63-11.81,21.34-11.43,13.75.54,27.54.17,41.31.11,2.53,0,5.05-.4,9.39-.77-35-26.69-57.33-59.37-67.25-100.17-1.81-7.41-3.21-14.92-4.79-22.38Zm313,192.11H334.83c-2.07,26.21,1.9,30.59,26.79,30.59H575.8c7.69,0,15.38.22,23.05-.07,10.67-.41,16.53-6.24,17.12-16.8C616.21,1186.47,616,1182,616,1177.15Zm206.54,280.24-65.89-109.88-66,109.88Zm-347.7-124.66c8,.17,15.44-6.79,15.89-14.89a15.63,15.63,0,0,0-31.22-1.52C459.08,1324.71,466.4,1332.55,474.85,1332.73Zm578.68-15.65a15.52,15.52,0,0,0-15-15.53,15.69,15.69,0,0,0-16,15.54,16,16,0,0,0,15.06,15.62A15.72,15.72,0,0,0,1053.53,1317.08Z" transform="translate(-303.03 -550.33)"/><path d="M1153.22,550.33c8.16,6.1,10.48,14.19,10.07,24.25-.7,17.27-.1,34.59-.23,51.88-.09,11.17-6.19,18.08-15.53,18.07s-15.29-6.95-15.53-18.12c-.13-6.08-.14-12.16-.23-18.24a9.42,9.42,0,0,0-.69-1.82,60.19,60.19,0,0,0-5.62,4.43c-14.09,14-27.73,28.46-42.4,41.83-4.47,4.07-11.57,6.74-17.69,7.23-13.37,1.07-26.88.44-40.33.3-11.27-.12-18-6.1-18-15.52s7-17,18-15.26c28.68,4.49,49.81-6.05,66.54-28.68,4.51-6.1,10.85-10.83,18.83-18.6-8.15,0-13.56-.15-19,0-9.18.31-17.63-.82-21.08-11-3.34-9.89,3.07-15.48,9.83-20.75Z" transform="translate(-303.03 -550.33)"/><path d="M1125.31,707.23c-8.92,0-15.16.1-21.39,0-11.85-.23-18.86-6.29-18.68-16,.17-9.33,7.06-15.35,18.27-15.44q28.37-.22,56.73,0c12.57.11,18.33,5.83,18.42,18.22q.24,28.85,0,57.7c-.08,11.15-6.3,18-15.68,17.9s-15.18-7.05-15.42-18.28c-.14-6.09-.18-12.17-.29-18.25,0-.25-.29-.49-1-1.53-2.1,1.78-4.26,3.36-6.13,5.23-13.87,13.79-27.31,28-41.72,41.21a28.41,28.41,0,0,1-16.87,6.94c-23.69.77-47.44.69-71.14.05a32.15,32.15,0,0,1-16.59-5.78c-16-11.18-31.42-23.21-48.34-35.88-9,9.12-19,17.32-26.6,27.38-18.63,24.77-42.15,35.2-73.08,30.42-11.27-1.74-23-.28-34.57-.28-17.47,0-19.66-1.63-25.29-18.58-9.08-27.34-18.36-54.63-27.12-82.07-2.07-6.47-4.84-9.31-12-8.94-12.79.64-25.66-.31-38.44.44a22.34,22.34,0,0,0-13.22,5.6q-32.45,31.46-64,63.84c-6.07,6.21-12.64,8.74-21.3,8.7-60.26-.25-120.53,0-180.79-.27-6.89,0-11.93,1.63-16.83,6.76-15.07,15.74-30.69,30.95-46.11,46.36a73.31,73.31,0,0,1-5.55,5.32c-7.23,5.83-15.72,5.56-21.68-.57s-6.55-14.84.05-21.59c20.61-21.1,41.36-42.06,62.72-62.38,3.59-3.41,10.48-4.66,15.85-4.69q89.91-.48,179.82,0c8.82.06,14.83-2.61,20.84-8.84,20-20.76,40.78-40.82,61-61.43,5.81-5.93,12.1-8.71,20.44-8.46,14.7.44,29.42.13,45.7.13-5.06-15.18-9.59-29.38-14.73-43.35-.64-1.73-4.5-3.12-6.92-3.19-11.21-.34-22.46-.58-33.63.1-3.62.21-7.77,2.61-10.46,5.25-21.29,20.86-42.48,41.84-63.25,63.21-6.57,6.76-13.63,9.42-23,9.38-59.94-.3-119.88-.05-179.82-.29-6.92,0-11.94,1.71-16.85,6.81-16.22,16.86-32.88,33.31-49.56,49.72-8.05,7.91-17.09,8.25-23.76,1.49-6.06-6.14-6.61-14.9-.07-21.59,20.84-21.31,41.81-42.51,63.43-63,3.56-3.38,10.58-4.31,16-4.34q90.87-.43,181.74-.05c6.6,0,11.32-1.77,16-6.53,20.84-21.32,42.19-42.13,63.05-63.42,5.84-6,12.18-8.59,20.48-8.42,17.94.37,35.9.28,53.85.06,10.09-.12,16.09,4.34,19.18,13.93,6.85,21.31,14.11,42.49,21.76,65.4,29.35-9.18,47.64,12.33,70,25.65,16.21-16.29,32.46-32.17,48.14-48.59,6.48-6.79,13.45-9.95,22.89-9.51,12.8.6,25.64,0,38.46.21,10.35.17,17.24,6.53,17.3,15.43s-6.83,15.21-17.13,15.64a13.2,13.2,0,0,1-2.88,0c-26.21-4.89-45.94,4.67-62,25.6-8.51,11.1-19.61,20.22-29.68,30.1-8.8,8.64-14.5,9.24-24.7,2.57-11.8-7.71-23.34-15.85-35.29-23.32-3.74-2.34-8.46-3.1-15.37-5.51,2.44,8,3.87,13,5.52,18,5.94,17.94,12.21,35.77,17.8,53.82,1.9,6.15,4.46,8.78,11.32,8.5,14.72-.59,29.5.24,44.22-.44a22,22,0,0,0,13.2-5.44c16.92-16.15,33.23-32.94,49.84-49.42,9.35-9.28,15.67-9.81,26.16-2,16.75,12.39,33.22,25.15,50.12,37.32a22.94,22.94,0,0,0,12.16,4.07c17.62.44,35.26.3,52.88.09,3,0,6.88-.46,8.81-2.32C1095,737.8,1109.06,723.49,1125.31,707.23Z" transform="translate(-303.03 -550.33)"/><path d="M1038,893c5.43,3.93,10.87,6.13,13.64,10.16,20.79,30.36,41,61.09,61.48,91.7,4.17,6.26,4.23,12.56,0,18.85-20.42,30.61-40.69,61.34-61.36,91.79-7.7,11.35-19.77,11.29-27.51-.13-20.47-30.19-40.54-60.67-60.81-91-4.39-6.57-4.68-13.09-.26-19.71,20.23-30.36,40.29-60.83,60.91-90.93C1027.09,899.43,1032.7,897,1038,893Zm.06,45.7c-12.73,19.17-24.58,37-36.37,54.74,24.84,11.46,48.52,11.42,72.83-.09Zm0,131.23,25.39-38.18c-.43-.74-.86-1.48-1.3-2.22-16.22,7.67-32.54,5.85-51.33-.53Z" transform="translate(-303.03 -550.33)"/><path d="M529.87,961.76c-.13,11.44-6.18,18.52-14.69,19.08-8.1.53-14.82-5.37-16.33-14.39-.32-1.89-.33-3.84-.76-5.7-2.78-12.18-13.44-20-25.39-18.72a23.83,23.83,0,0,0-21.05,22.62c-.31,11.72,8.68,22.06,20.85,23.83,5.06.73,10.26.74,15.21,1.89a54.41,54.41,0,0,1,41.9,47.12c2.57,22.2-9.41,44.93-30.18,54.35-7.32,3.31-9.37,7.38-8.58,14.49a36.13,36.13,0,0,1-.18,8.63c-1.13,8.47-7.53,14.29-15.43,14.34s-16.19-6-15.27-14.09c1.65-14.71-4.9-21.61-17-28.51-14.64-8.37-21.39-23.42-22.46-40.38-.64-10.28,5.24-17.64,14.11-18.53,8.7-.87,15.38,5.35,16.93,15.78,1.87,12.63,8.36,20.42,18.86,22.66a23.29,23.29,0,0,0,24.71-10.93c9.08-15-.71-33.32-18.81-35.39-6.33-.73-12.93-1.07-18.83-3.19-22-7.89-34.45-24-36.83-47.1a52.45,52.45,0,0,1,29.77-52.68c6.87-3.25,9.39-6.67,9.12-14.23-.58-15.93,5.21-23.71,16-23.43,10.4.27,15.7,7.72,15.21,23.25-.22,7.35,1.9,11,8.92,14.37C518.86,926.15,528.37,942.54,529.87,961.76Z" transform="translate(-303.03 -550.33)"/></svg>