<svg id="Layer_1" data-name="Layer 1" xmlns="http://www.w3.org/2000/svg" viewBox="0 0 674.65 675.9"><path d="M1239.69,1144.85v-9.93q0-114.08,0-228.16a57,57,0,0,1,.48-8.87c.77-4.83,3.74-7.7,8.69-8.22a60,60,0,0,1,6.15-.22q70.58,0,141.15,0c12.94,0,15.56,2.66,15.56,15.7q0,115.46,0,230.9v8.13h38.66V839.54c-29,.79-52.48-9.76-69.4-34.93-16.19,23.46-37.94,34.88-65.79,34.79-27.63-.09-49.24-11.29-65.2-34.76-16.16,23.38-37.9,34.89-65.86,34.76-27.66-.12-49.29-11.36-65.21-34.87-15.89,23.44-37.47,34.75-65.09,34.86s-49.39-10.93-65.84-34.7c-16.74,24.39-39.81,35.78-69.39,34.69v305.1c2.13.11,4.53.35,6.93.35,14.39,0,28.78,0,43.16,0,8.06,0,12.85,3.79,13,10,.19,6.5-4.75,10.58-13.17,10.61-18.73.06-37.45,0-56.18,0-11.87,0-15-3.14-15-15q0-152.1.18-304.21c0-7.81-2.22-11.25-9.52-14.41-25.37-11-45.68-41.45-40-73.21,4.2-23.35,8.13-46.76,12.66-70.05.82-4.22,3.33-8.51,6.12-11.89,24-29.06,48.27-57.85,72.19-87a18.87,18.87,0,0,0,3.89-10.93c.34-24.89.15-49.78.18-74.68,0-10.73,3.72-14.52,14.3-14.52q227.13,0,454.26,0c10.37,0,14,3.61,14,14,0,24.67.12,49.34-.07,74a18.17,18.17,0,0,0,4.58,12.93c21,24.72,41.12,50.18,62.65,74.4a74.77,74.77,0,0,1,19,41.17c2.69,19.42,8.13,38.51,9.82,58,.9,10.4-2.18,21.79-5.94,31.8-6.33,16.87-18.81,29.22-35.45,36.2-6.93,2.9-8.76,6.43-8.74,13.54q.35,151.75,0,303.52c0,4.14-.35,9.66-2.89,12-3,2.82-8.52,4-12.95,4q-171,.32-341.9.17H1011.66a36.11,36.11,0,0,1-6.83-.21c-5.54-1.08-9.07-4.2-9-10.27s3.64-9.12,9.24-10a43.29,43.29,0,0,1,6.84-.15h227.74Zm20.69-.48c2.28.24,3.39.45,4.49.46,40.18,0,80.35-.1,120.52.14,6.13,0,5.75-3.28,5.75-7.35,0-54.32-.12-108.65.11-163,0-6-1.67-7.77-7.69-7.73q-57.87.38-115.73,0c-6.2,0-7.59,2-7.57,7.87.21,54.1.12,108.19.12,162.29ZM1404.53,511H963.72v7.24c0,16.89.31,33.8-.16,50.69-.19,6.73,2,8.29,8.47,8.28q212.37-.25,424.74-.13h7.76Zm-21.36,187.26a36.9,36.9,0,0,0,0,3.84c2.91,24.22,5.17,48.55,9.15,72.59a55.71,55.71,0,0,0,11,24.51c17.15,21.63,52,26.21,75,10.69,15.24-10.29,24.45-25.13,22.73-43.34-2-20.79-7.44-41.24-10.82-61.93-.91-5.6-3-6.88-8.31-6.83-30.58.23-61.16.1-91.73.13C1387.9,697.87,1385.68,698.08,1383.17,698.21Zm-397.18.6a11.47,11.47,0,0,0-2.61-.87c-33.08-.05-66.16-.13-99.23.13-1.65,0-4.36,2.84-4.74,4.73-3.32,16.54-6.28,33.15-9.2,49.76-1.06,6-3,12.23-2.39,18.15,2.61,26.37,19.59,43.51,45.91,47.42,33.78,5,60.43-15.81,63.85-49.72,1.25-12.47,3-24.89,4.49-37.33Q984,714.93,986,698.81Zm270.49-.51c.57,10.19,1.07,19.51,1.63,28.82,1,15.93,1.53,31.9,3.06,47.78,2.59,27,30.35,46.72,60.63,43.56,32.11-3.35,51.86-28.43,47.63-60.34-2.37-17.85-4.75-35.71-6.73-53.6-.57-5.15-2.29-6.84-7.61-6.8-30.57.26-61.14.12-91.7.15C1261.4,697.87,1259.4,698.11,1256.48,698.3Zm-144.09.52a13.34,13.34,0,0,0-2.79-.87c-32.62-.05-65.25,0-97.87-.18-4.7,0-5.05,2.87-5.45,6.1-2.53,20.12-5.25,40.22-7.36,60.39a44.7,44.7,0,0,0,1.46,16.18c7.2,26,32.07,41.1,60.37,38,27.71-3,46.67-25.6,47.28-47.7.41-15,1.85-30,2.8-45.06C1111.38,716.86,1111.86,708,1112.39,698.82Zm20.84-1c-1.25,22.11-2.64,43.26-3.59,64.42-1.34,30,16.84,52,46.57,55.88,39.55,5.2,65.88-23.82,63.09-57.16-1.59-19.1-2.37-38.27-3.17-57.43-.19-4.52-1.64-5.84-6-5.79-17.13.2-34.26.08-51.39.08Zm99.63-21.17a14.83,14.83,0,0,0,.23-3c-3.6-23.89-7.34-47.75-10.77-71.66-.62-4.34-3.11-4.25-6.22-4.25-21,0-42,.17-62.94-.09-4.7-.06-6.22,1.57-6.85,6-2.19,15.56-4.81,31.06-7.17,46.6-1.32,8.67-2.44,17.36-3.71,26.43Zm9.59-78.93c4,26.21,7.63,51,11.71,75.77.24,1.47,3.79,3.4,5.81,3.41,29.46.22,58.91.16,88.36.12a45.9,45.9,0,0,0,5.52-.72c-12.58-25.55-24.67-50.37-37.15-75-1-1.9-4.6-3.38-7-3.44-13.69-.33-27.39-.16-41.09-.16Zm-116.19,1a11.34,11.34,0,0,0-2.52-.84c-22.11-.05-44.23-.21-66.33.13-2.1,0-5,2.73-6.08,4.91-10.21,20.11-20.13,40.36-30.09,60.6-2.06,4.18-3.94,8.45-6.33,13.59,32.89,0,64.52,0,96.15-.19,1.35,0,3.63-2.58,3.89-4.21C1118.85,648.2,1122.49,623.67,1126.26,598.7ZM1475,676.64c-22-26.41-43-51.65-64.28-76.7-1.29-1.52-4.41-2.08-6.68-2.1-20.1-.15-40.19-.09-60.29-.05-1.45,0-2.91.34-5.14.61,12.75,25.83,25.07,51,37.75,76,.83,1.64,4.49,2.6,6.83,2.61,28.09.18,56.18.12,84.26.1C1469.43,677.07,1471.41,676.85,1475,676.64ZM1030.5,597.77c-23.62,0-45.93-.1-68.25.18-2,0-4.3,2.19-5.79,3.94q-19.73,23.21-39.17,46.64c-7.51,9-14.94,18.08-22.95,27.78A25.55,25.55,0,0,0,898,677c29.89,0,59.78.15,89.67-.1,2,0,4.78-2.3,5.84-4.26,4.79-8.8,9.14-17.85,13.56-26.86C1014.64,630.27,1022.21,614.73,1030.5,597.77ZM1326,946.3c19.64,0,39.27,0,58.9,0,3.48,0,6.34-.1,6.23-4.91-.21-8.89-.17-17.8,0-26.7.07-3.75-1.8-4.63-5.06-4.62q-60.27,0-120.53,0c-3.77,0-5.32,1.33-5.23,5.21.19,7.52.43,15.09-.07,22.59-.43,6.42,1.43,8.76,8.26,8.6C1287.69,946,1306.87,946.3,1326,946.3Z" transform="translate(-847.08 -489.66)"/><path d="M1082.42,889.62q53.07,0,106.13,0c11.25,0,13.91,2.5,13.93,13.58q.11,64,0,128c0,10.3-3.3,13.52-13.56,13.53q-106.82.06-213.63,0c-10.65,0-14.22-3.76-14.22-14.52q0-63.33,0-126.67c0-10.36,3.54-14,13.86-14Q1028.67,889.59,1082.42,889.62Zm99.34,134.29c.15-2.15.34-3.7.34-5.25,0-33.79-.15-67.59.16-101.37.06-6.37-2.21-7.47-7.93-7.45-61.42.18-122.83.11-184.25.12-2.43,0-4.86.22-7.73.36v113.59Z" transform="translate(-847.08 -489.66)"/><path d="M1185.32,533.42h181.56a35.38,35.38,0,0,1,7.51.34c4.71,1,7.66,4.09,7.94,9,.27,4.78-1.59,8.61-6.35,10.2a23.66,23.66,0,0,1-7.35,1.07q-182.6.07-365.19,0a23.4,23.4,0,0,1-6.76-.65c-5.24-1.63-7.84-5.47-7.3-10.94.51-5.23,3.82-8.16,8.9-8.9a47.22,47.22,0,0,1,6.84-.18Z" transform="translate(-847.08 -489.66)"/></svg>