<svg id="Layer_1" data-name="Layer 1" xmlns="http://www.w3.org/2000/svg" viewBox="0 0 1216.68 1020.1"><path d="M1594.93,779.19c-5.48,13-11.11,26-16.4,39.16-7.64,19-21.8,25.63-40.94,18.89-5-1.76-9.85-3.76-16.72-6.41v13.3c0,218-.28,436,.34,654,.08,28.52-17.82,38.92-38.79,38.9q-496.15-.45-992.3-.22c-20.12,0-31.7-7.08-36.44-22.45a35.45,35.45,0,0,1-1.31-10.22q-.15-47.05-.05-94.11c0-12.15,6.47-19.78,16.64-19.94s17.19,7.29,17.3,19.54c.26,26.93.09,53.86.1,80.79v10.87H610.43v-12.52q0-252.84-.1-505.69c0-24.94,8.38-45.09,29.42-59.2,12-8,25.57-11,39.69-11q307-.14,614,0c42.37,0,69.28,27.57,69.29,69.85q.07,252.85,0,505.69v12.77h124.06v-10.54q0-331.74.19-663.48c0-8-2.52-11.7-9.81-14.57q-138.27-54.49-276.32-109.53-101.16-40.26-202.16-81c-8-3.25-15.12-3.58-23.34-.27q-148,59.57-296.26,118.61-91.05,36.28-182.34,71.95c-8,3.13-10.65,7.23-10.63,16q.45,243.34.16,486.68a56.09,56.09,0,0,1-1.41,14.07c-2.18,8.29-9.26,12.41-18.3,11.16-8.21-1.13-12.93-6.15-14.1-14.24-.5-3.41-.18-7-.18-10.44V831.24c-5.8,2-10.43,3.52-15,5.22-20.76,7.72-34.95,1.42-43.11-18.93-5.14-12.84-10.62-25.56-15.95-38.34v-11.4c5.87-14.87,18.34-21.6,32.43-26.38,4.78-1.62,9.49-3.42,14.18-5.29q147.69-59,295.36-118.06c79.43-31.71,159-63.09,238.3-95.1,18.66-7.53,36.34-8.44,55-.46,25.53,10.92,51.45,21,77.25,31.24q91.07,36.32,182.17,72.52c32,12.73,63.94,25.4,95.84,38.3,9.93,4,14,13,10.89,22.2-3,8.93-12.2,12.87-22.61,9.62-3.61-1.13-7.16-2.46-10.67-3.87Q1289.68,669.89,1233,647.2c-75.9-30.29-151.91-60.32-227.62-91.07-13.32-5.41-24.84-5.39-38,.32-28.08,12.19-56.71,23.1-85.16,34.42q-77.41,30.79-154.88,61.49-101.62,40.46-203.19,81c-33.72,13.43-67.51,26.66-101.16,40.25-2.67,1.08-6.74,5-6.32,6.37,2.44,8.23,6,16.11,9.31,24.27,77.67-31,153.55-61.35,229.45-91.62q154.32-61.54,308.65-123.09c13.35-5.34,26.07-8.1,40.22-2.05,26.11,11.15,52.64,21.33,79,31.85q90.6,36.17,181.23,72.25,89.31,35.55,178.64,71c34.29,13.64,68.57,27.3,103.94,41.39,2.58-6,4.77-11.82,7.59-17.35,4-7.91,1.33-11.34-6.62-14.4-37.4-14.39-74.6-29.28-111.75-44.29-11.79-4.76-16.2-14.7-11.72-24.19,4.11-8.72,14.14-11.46,25.22-7.05,37,14.72,73.81,29.68,110.94,43.92,14.47,5.55,27.92,11.55,34.16,27.09Zm-266.08,722.27v-11.13q0-214.78.25-429.59c0-9.92-2.81-12-12.19-12q-330.26.38-660.5,0c-9.1,0-12.37,1.59-12.35,11.79q.59,215.28.27,430.54v10.06h67v-12q0-75.56,0-151.12c0-26.24,11.36-37.58,37.59-37.61,32,0,64,0,96,0,16.48,0,14.93,2,14.94-14.48.06-50.37,0-100.74.06-151.11,0-9.18.42-18.12,7.25-25.75,7.65-8.53,17.25-9.61,27.61-9.6q81.72.06,163.46,0c10.44,0,20.93-.11,31.32.78,11.65,1,21,10.49,22.67,22.07a109.36,109.36,0,0,1,1,15.14c.07,51,.21,102-.12,153,0,8,2.41,10.17,10.22,10.08,34.53-.38,69.06-.29,103.59-.11,22.6.11,34.5,12.12,34.88,34.57,0,2.53,0,5.07,0,7.6v158.77ZM644.48,1014h684.26c0-13.2.69-25.58-.19-37.85-.94-13-7.64-22.82-20.76-26.47a66.73,66.73,0,0,0-17.74-2q-303.57-.15-607.13-.07c-3.17,0-6.35,0-9.5.17-15.66,1.11-27.66,12-28.76,27.61C643.78,988,644.48,1000.64,644.48,1014Zm433.39,285.93c.87-1.31,1.2-1.57,1.2-1.83.15-52.85.37-105.69.12-158.54,0-2.16-4.3-5.89-6.86-6.14-8.15-.8-16.44,0-24.65-.4-6.2-.28-8.46,2.12-8.36,8.26.25,15.19.19,30.39,0,45.58-.22,20.93-10.06,31-30.81,31.32-14.56.23-29.12.2-43.68,0-20.78-.27-30.81-10.32-31-31.07-.17-14.56-.34-29.13.09-43.68.22-7.54-1.72-11.3-10.06-10.45a98.55,98.55,0,0,1-19,0c-8.58-.81-11.5,2-11.42,11,.43,48.74.19,97.49.23,146.24,0,3,.31,6.11.5,9.64ZM930.07,1501.5c.63-1.49,1.08-2,1.08-2.61.1-52.54.25-105.08-.06-157.61,0-2.2-4.17-6-6.69-6.26-7.82-.82-15.81,0-23.69-.41-6.91-.4-9.57,1.81-9.33,9.09.49,15.18.18,30.38.13,45.57-.06,18.77-9.4,29.21-27.86,29.85-16.75.57-33.54.18-50.31.07-11-.08-20-4.56-24.53-14.74-2.36-5.28-3.24-11.55-3.39-17.41-.43-17-.16-34-.16-52.33-10.11,0-19.25.65-28.25-.18-9.25-.86-11,3-11,11.35.32,48.42.14,96.85.18,145.28,0,3.34.34,6.68.53,10.34Zm257.83-166.76c0,19.35.24,37-.07,54.74-.3,17.38-9.5,28.49-25.73,29.29a549.74,549.74,0,0,1-56-.11c-15.39-.83-24.35-11.69-24.45-27.09s-.38-31,.11-46.52c.23-7.55-1.58-11.26-9.89-10.46a99.26,99.26,0,0,1-19,0c-8.62-.84-11.46,2.07-11.38,11,.42,48.74.19,97.49.22,146.23,0,3.06.31,6.11.49,9.48H1227V1352c0-3.8.63-7.77-.29-11.33-.59-2.28-3.41-5.54-5.36-5.64C1210.66,1334.45,1200,1334.74,1187.9,1334.74Zm-180.11,166.63c0-54.15.08-107.28-.3-160.4,0-2.1-4.32-5.72-6.88-6-8.16-.78-16.47.21-24.65-.44s-10.85,2.1-10.79,10.58c.38,49,.18,98.09.21,147.14,0,3,.27,6,.44,9.6,12.17,0,23.21,0,34.25,0C1002.23,1501.86,1004.38,1501.6,1007.79,1501.37Zm-2.21-342.27c0-26.06,0-26.06-26.25-26a36.65,36.65,0,0,1-3.78,0c-6.3-.68-8.26,2.31-8,8.33.35,9.76.09,19.55.09,29.32,0,13.11,0,13.11,13.47,13.12C1005.58,1183.89,1005.58,1183.89,1005.58,1159.1Zm-147.88,201c0-25.42,0-25.42-25.26-25.39-1.9,0-3.81.12-5.7,0-5.38-.4-7.3,2.16-7.2,7.36.21,10.13.05,20.27.06,30.41,0,13,0,13,12.84,13C857.7,1385.5,857.7,1385.5,857.7,1360.1Zm295.88-.31c0-5.38-.28-10.79.07-16.15.42-6.32-1.54-9.46-8.49-9a209.54,209.54,0,0,1-21.85,0c-5.69-.23-8,1.95-7.89,7.72.24,11.72.19,23.44,0,35.16-.08,5.41,1.52,8.3,7.57,8,7.9-.34,15.89.44,23.72-.39,2.48-.26,6.14-3.9,6.53-6.41C1154.2,1372.56,1153.56,1366.13,1153.58,1359.79Z" transform="translate(-378.25 -516.9)"/><path d="M855.56,866.86c-18.38,0-36.75.12-55.13,0-16.58-.13-28.71-10.72-29.48-27.12-.82-17.38-.81-34.86,0-52.25.74-16.49,12.74-27.27,29.34-27.34q55.13-.27,110.26,0c16.51.08,28.3,11.3,28.73,27.62q.69,26.12-.07,52.26c-.44,15.35-12.19,26.55-27.54,26.76-18.69.25-37.39.06-56.08.06ZM855.08,833c14.22,0,28.45-.13,42.68.07,5.38.08,8.35-1.4,8.14-7.43-.29-8.21-.21-16.44,0-24.66.11-5.32-2.29-7.24-7.45-7.21q-43.15.16-86.31,0c-4.78,0-7,1.59-6.85,6.55.18,8.53.22,17.08,0,25.61-.16,5.26,1.8,7.26,7.17,7.17C826.62,832.82,840.85,833,855.08,833Z" transform="translate(-378.25 -516.9)"/><path d="M1118,866.86c-18.38,0-36.75.13-55.13,0-16.93-.17-28.55-11.34-29-28.37q-.63-25.17,0-50.36c.43-16.43,12.11-27.86,28.45-28q55.61-.3,111.2,0c15.61.08,27.62,10.39,28.54,26.05a491.17,491.17,0,0,1,.06,54.13c-.84,16-13,26.37-29,26.51C1154.7,867,1136.32,866.86,1118,866.86Zm-.19-33.87c14.23,0,28.46-.14,42.68.08,5,.07,7.7-1.19,7.51-6.82-.29-8.53-.19-17.08,0-25.61.08-4.64-1.43-6.92-6.52-6.89-29.08.14-58.17-.09-87.25.36-2.3,0-6.22,4.07-6.48,6.55-.83,8.14-.13,16.42-.39,24.63-.19,5.7,2.07,7.88,7.8,7.78C1089.3,832.82,1103.53,833,1117.76,833Z" transform="translate(-378.25 -516.9)"/></svg>