<svg id="Layer_1" data-name="Layer 1" xmlns="http://www.w3.org/2000/svg" viewBox="0 0 691.12 984.44"><path d="M1260,891.36c-1.28,5.28-2.5,10.58-3.86,15.84A88.28,88.28,0,0,1,1233,948.13c-14.22,14.29-28.36,28.66-42.77,42.75-25,24.46-55.81,30.34-89,25.57-51.1-7.35-92.61-33.42-128.3-69.24-33.84-34-58.84-73.36-67.36-121.44-6.87-38.74.38-73.4,30.76-101.13,11.93-10.91,23.06-22.71,34.4-34.26,28.73-29.25,64.06-33.54,101.78-25.69,54.63,11.36,97.41,42.47,133,84.08,27.85,32.58,47.69,69.33,53.24,112.65a23.73,23.73,0,0,0,1.39,4.28ZM975,757.7c1.27,8.73,1.91,17.62,3.92,26.18,10.81,46.13,37.31,82.48,72.48,112.88,30.38,26.27,64.6,44.78,105.57,48.48,43.65,4,73.78-22.65,73.65-66.25a126.75,126.75,0,0,0-4.4-32.52c-13.6-50.18-44.54-88.36-85.38-119-28.85-21.64-60.74-36.73-97.66-37.18C1001.15,689.79,975.8,715.52,975,757.7Zm189.57,217.21c-60.53-3.67-107.58-30.74-147.67-70.91s-67.27-87.15-71.5-145.8A58.13,58.13,0,0,0,937.26,772c-7.79,20.27-6.39,40.91-.57,61.19,15.93,55.49,51.15,96.5,98.61,127.52,28.36,18.55,59.19,30.43,94,27.7C1141.46,987.47,1152.81,984.05,1164.52,974.91Z" transform="translate(-568.89 -394.56)"/><path d="M812.71,1379c-3.46-1.07-6.87-2.4-10.4-3.17A92.66,92.66,0,0,1,755,1349.44c-10.91-11.12-21.51-22.61-33.09-33-32.37-29-39.65-65.41-31.38-106,11-54.07,41.35-96.58,82-132.25,31-27.21,66.2-47,107.48-54,38.79-6.58,73.42.66,101.05,31.15,10.24,11.3,21.28,21.93,32.37,32.42,22.66,21.43,31.66,48,30.39,78.55-1.48,35.83-14.14,68.09-33.84,97.46-36,53.74-83.33,92.94-146.91,110.16-6.41,1.74-12.82,3.43-19.23,5.14Zm-82.61-95.77c1.65-11.91,2.16-22,4.5-31.56,17.5-72,62.28-123,124.45-160.34,9.51-5.71,17.76-3.9,22.21,4,4.35,7.7,1.44,15.62-8.2,21.1A240.81,240.81,0,0,0,794,1188.78c-20.48,29.31-34.72,61-33.88,97.81.77,33.71,20.33,57.4,53.59,61.44a121.1,121.1,0,0,0,45.16-3.31c55-14.92,95.68-49.92,126.85-96.53,16.52-24.69,27.4-51.64,29.37-81.79,2.82-43.34-23.89-72.15-67.35-72-5.78,0-11.55.91-17.34,1.25-9.28.54-16.1-4.87-16.72-13.11-.59-8,4.7-14.16,13.59-15.4,6.49-.91,13-1.44,22.56-2.47-6.48-3.63-10.4-6.32-14.68-8.13-16-6.78-32.74-7.26-49.52-4.15-49.08,9.11-87.45,36.27-119.63,73-26.49,30.2-45.43,64.33-49.24,105.24C715,1248.92,718.07,1266.22,730.1,1283.23Z" transform="translate(-568.89 -394.56)"/><path d="M801.71,394.56c10.08,3.31,21.41,4.69,30,10.26,33.38,21.56,62.17,48.79,82.59,82.84,15.16,25.29,13.12,54.25,6,82.14C905.45,627.66,870.73,672,823.86,707.4c-32,24.15-67.41,40.66-108.21,43.17-32.27,2-60.25-7.28-82.65-31.44-6.64-7.16-13.48-14.2-20.75-20.72-21.13-18.94-38.26-40.26-43.36-69.2V592.55c.57-2,1.21-4,1.7-6.09,22-91,79.46-150.33,165.43-183.66,10.4-4,21.77-5.55,32.69-8.24Zm80.49,94.88c-1.38,11-2.09,19.8-3.66,28.42-1.69,9.31-8.69,14.19-17,12.71-7.8-1.39-12.05-8-11.27-17.17.79-9.42,2.37-18.88,2-28.25-1.67-37.4-26.25-61.7-63.61-61.37A153.08,153.08,0,0,0,743.8,431c-45.45,14.6-80.49,44-108.81,81.68-20.33,27-34.4,56.84-37.48,91.12-4.24,47,26.7,79,73.62,74.13a175.45,175.45,0,0,0,48.49-12.28c44.14-18.36,77.9-49.63,104-89.33,8.37-12.73,15.71-16,24.08-10.42s8.85,13.88-.19,26.25c-10.59,14.51-21.18,29.3-33.7,42.09-40.23,41.07-87.19,69.56-146.31,73.38-.66,0-1.28.79-3.15,2,5.8,2.86,10.45,5.68,15.47,7.53,19,7.06,38.48,6,57.67,1,50.66-13.24,89.29-44,120.39-84.92,20.84-27.41,35.44-57.77,37.86-92.81C897,522.66,894.14,505.84,882.2,489.44Z" transform="translate(-568.89 -394.56)"/><path d="M1180.7,851.46c-.6,3.92-1.67,7.83-1.66,11.75,0,4.13.17,8.65,1.82,12.29,3,6.67,2.9,12.56-2.2,17.69s-11.74,6.3-17.47,1.9c-4.68-3.6-8.5-2.73-13.42-1.52-16.68,4.09-31.45-.34-44.13-11.63-6.69-6-7.62-14.3-2.81-20.43,5.2-6.61,13.25-7.24,21.14-1.66,2,1.41,3.84,3.11,6,4.15,6.51,3.13,13.13,3.62,18.79-1.56,6-5.48,6.08-12.35,2.92-19.35-4.48-9.93-16-16.65-27-14.79-9.89,1.66-19.55,4.63-29.34,6.92-43.26,10.13-78.15-33.27-64.93-65.9.86-2.11-.55-5.75-2-8.05-4.25-7-4.2-13.45,1.74-19.08,5.61-5.32,11.8-4.82,18.52-1.2a16.14,16.14,0,0,0,10.56,1.28c16.76-4.06,31.48-.22,44.55,10.51,7.63,6.28,8.87,15.26,3.5,21.74s-13.18,6.64-21.22,1c-3-2.07-6.25-5.06-9.44-5.12-5.09-.1-11.94.29-14.88,3.43-3.24,3.47-4.68,10.6-3.79,15.57,1.87,10.45,13.63,18.87,24.56,18,8.11-.66,16.13-3,24-5.14,29.77-8,55,.31,68.5,24,4.25,7.46,6,16.34,8.91,24.57Z" transform="translate(-568.89 -394.56)"/><path d="M923,1144.65a38.81,38.81,0,0,1,7.91,1.25c5.76,1.89,10.34,1.26,16.11-1.6,4-2,11.37-.26,15.6,2.41,5.67,3.57,6.61,10.92,2.67,16.33-3.83,5.25-3,9.56-1.77,15.13,3.81,16.71-.82,31.46-12.43,43.91-6,6.42-14.57,6.92-20.47,1.72S924.19,1211,929,1204c.51-.76,1.15-1.43,1.69-2.17,6.83-9.37,7-19,.3-24.72-6.92-6-17.5-4.4-25.39,3.76-6.6,6.84-9.56,14.81-7.29,24.28,2.21,9.19,4.62,18.33,6.79,27.53,9.6,40.76-31.81,77.28-66,64.16-2.17-.83-5.79.47-8.05,1.87-7,4.3-13.44,4.27-19.08-1.69-5.31-5.6-4.88-11.78-1.25-18.53a16.28,16.28,0,0,0,1.24-10.55c-4.05-17.1-.31-32.11,11.12-45.2,6.29-7.18,14.74-8.16,21.11-3s6.76,13.2,1.16,21.19c-2.08,3-5.2,6.28-5.16,9.41.07,5.36.7,12.17,4,15.61,3,3.11,10.18,4.26,14.85,3.24,13.1-2.85,20.71-17.21,17.67-31.76-1.69-8-4.37-15.89-6.31-23.89C860.77,1174.12,893,1144.14,923,1144.65Z" transform="translate(-568.89 -394.56)"/><path d="M690.08,628.12c-1.93-.24-5.48,0-8.54-1.19-5.83-2.15-10.52-2-16,1.91-5.64,4-11.9,1.94-16.5-3s-5.69-11.33-1.59-16.79c3.43-4.55,3.15-8.3,1.84-13.35-4.32-16.65.17-31.45,11.27-44.23,6.23-7.17,14.77-7.93,21.11-2.52,6.11,5.2,6.59,13,1.29,20.49-8.37,11.89-8.44,21.69-.18,27.28s19.71,1.9,27.46-8.86c5.55-7.71,5.12-16.05,3.08-24.56-1.84-7.71-4.37-15.27-6.05-23-9.28-42.55,32.59-76.89,65.87-64.47,2.37.89,6.18-.65,8.79-2.06,6.75-3.66,13-3.61,18.42,1.91s5.1,11.7,1.49,18.47a16.27,16.27,0,0,0-1.36,10.56c4.13,17.11.26,32.09-11,45.26-6.13,7.16-14.75,8.3-21.06,3.23-6.49-5.21-7-13.25-1.43-21.16,1.59-2.24,3.43-4.39,4.53-6.85,3-6.68,2.82-13.27-2.77-18.58s-12.13-5.18-18.75-2.09c-10.58,4.95-16.58,16.28-14.42,28.95,1.54,9,4.66,17.69,6.59,26.62C749.59,594.36,724.4,628.09,690.08,628.12Z" transform="translate(-568.89 -394.56)"/></svg>