<svg id="Layer_1" data-name="Layer 1" xmlns="http://www.w3.org/2000/svg" viewBox="0 0 1232.47 1229.64"><path d="M1493.47,1187c-4,19.83-6.89,40-12.18,59.45C1453.46,1349,1383.56,1407,1282.5,1429.91a369.88,369.88,0,0,1-77.19,8.57c-93,1-186,.41-279.06.33-4.67,0-9.57-.07-14-1.41-9.68-3-14.78-10-14.2-20.26s6.3-16.69,16.28-18.63c5-1,10.34-.79,15.52-.79q136-.06,272,0c36.71,0,72.44-5.41,106.93-18.08,83.14-30.53,128.45-91.05,139.49-177.94,9.36-73.69-4.9-144.82-25.66-215C1389.22,873.88,1334.25,773.19,1249,691c-26.68-25.74-57-48-86.91-70.06-24.45-18-25.32-16.81-56-4.16,16.22,15.13,32.32,29.52,47.58,44.76,4.72,4.71,10,11.77,9.84,17.64-.14,6.33-5.14,16.29-10.16,17.86-7.15,2.25-18.67,1.16-24.11-3.47-24.44-20.77-47.35-43.34-70.9-65.17-4-3.73-8.45-7-15.24-12.64-.91,6.75-1.83,10.53-1.87,14.32-.2,16.53.26,33.07-.3,49.58-.43,12.85-8.86,20.89-20.32,20.8s-19.53-8.34-20.15-21.15c-.48-9.9-.14-19.83-.15-29.75V616.68c-6.41,4.16-10.83,6.22-14.26,9.37-22.23,20.47-44.19,41.23-66.35,61.78-15.68,14.54-27,16.41-36.6,6.37s-7-21.77,8.24-36.06c14.4-13.48,28.81-26.93,43.42-40.58-20-12.86-36.45-10-55.45,2.67C822.91,657.83,774.52,703.5,733.23,757c-2.31,3-4.44,6.15-7,8.9-8.65,9.25-20.35,10.61-29,3-9.17-8.12-10.43-18-3.12-27.77,10.76-14.33,22.47-28,33.43-42.14,2.72-3.52,5.83-8.05,5.87-12.15.42-43.87.26-87.75.26-133.52-75.33,33.1-149.87,33.12-225,.25V700c13.52,1.71,27.53,1.58,40.31,5.49,23.7,7.25,47.83,14.64,69.64,26.07,23.11,12.11,33.67,33.36,33.41,61-.87,93.49-.33,187-.33,280.49v15.16c31,2.71,61,2.46,89.6,8.72,23.38,5.11,46.21,16,67.15,28,19.88,11.41,28.21,31.27,28,55.26-.64,82.16-1,164.34.16,246.48.45,31.34-13.24,52-38.66,67.08-32.21,19-67.92,24.88-104.53,26.88-43.72,2.39-85.4-5.7-125-26-21.6,42.52-61.08,54.38-102.52,63-5,1-10,2.23-15,3.35H380c-4.49-1.09-8.95-2.34-13.48-3.24-44-8.74-85-22.21-105.52-67.59V1365.5c14.08-29.48,38-47.58,68.57-56.46,12.14-3.53,14.49-9.5,14.47-20.92-.33-163.84.27-327.67-.65-491.5-.18-33,13.42-55.15,40.92-70a206.93,206.93,0,0,1,37.8-15.53c14.29-4.37,29.19-6.75,45.05-10.26v-15.4c0-61.85.23-123.7-.14-185.55-.11-18.9,6.54-34.69,20.83-46,11.69-9.25,24.73-17.62,38.45-23.31,40.1-16.66,82.3-19.53,125.16-15.25,33.77,3.37,66.11,11.2,94.21,31.42,19.18,13.8,29.56,31.76,29.06,56.46-.88,43.89-.26,87.81-.21,131.72,0,4,.5,7.94.78,12.07,30.81-23.35,60.71-46,90.82-68.86a3.74,3.74,0,0,0-.76-1.73c-53.54-55.62-70.05-124.63-70.93-198.87-.39-32.95,31.09-51.94,60.56-37,10.39,5.25,19.66,12.9,29,20.05,19.79,15.19,46.89,17,65.56,1.32,17-14.32,35.27-24.88,56.61-30.46h28.33c21.28,5.67,39.57,16.21,56.57,30.47,18.73,15.71,45.62,13.81,65.53-1.36,9.71-7.4,19.43-15.28,30.29-20.56,29-14.08,58.94,5.07,59.5,37.37a161.35,161.35,0,0,1-1.6,26.82c-1.68,11.11.63,16.91,12.69,21.66C1314.39,448.2,1350,526.3,1292,583.05c-.78.77-.82,2.28-1.41,4.05,7.32,2.06,14.12,3.77,20.79,5.91,30.89,9.91,59.65,23.65,82.55,47.42,11.59,12,12.68,24.65,3.42,33.58-9.51,9.17-20.32,7.46-32.92-5.22-27.09-27.25-94.21-51.46-129-46.38a22.14,22.14,0,0,0,2.66,3.24C1366,733.19,1440.67,872,1476.83,1033.11c7,31.15,11.16,62.92,16.64,94.4ZM386.05,840.72v455.86c49.5-5,96.48,1.16,142.53,23.73v-16c0-40.59.88-81.2-.3-121.75-.81-28.17,11.07-48.27,34-62.39a161.23,161.23,0,0,1,35.66-16.84c10.08-3.18,12.75-7.81,12.7-17.88-.4-76.92-.21-153.85-.25-230.77,0-4.16-.35-8.32-.61-13.85C534.92,873.22,460.84,873.34,386.05,840.72Zm409.31,388.92c-76.72,33.54-150.67,33.32-225.7.12v190.79c0,27.17,4.34,33.87,29.85,44.27,38.64,15.75,79,18.4,119.55,11.84,19.68-3.18,38.91-10.56,57.63-17.87,13.17-5.15,19.22-15.71,19-31.35-.83-60.82-.34-121.65-.34-182.48Zm289.13-653.47A72.36,72.36,0,0,0,1133,558.79c56.11-47.16,69.54-111.24,72.45-183.53-8.42,6-14.25,9.62-19.55,13.93-40.68,33.07-87.59,32.79-127.65-.92-25.24-21.23-51.08-21.1-76.56.39-39.27,33.11-87,33.42-126.57,1-5.5-4.51-11.67-8.21-19.86-13.9,1.38,56.37,10.94,106.74,41.9,151,13.13,18.75,28.79,35.33,50.74,43.81,9.48,3.66,19.82,5.08,33.16,8.34-4.74-9.25-7.65-14.07-9.78-19.22-10.79-26.12-21.9-52.12-31.78-78.58-4.24-11.36,1.19-20.74,12.47-25,11.57-4.32,20.24.67,25.59,11.36,1.67,3.34,2.06,7.31,3.66,10.69,14.29,30.19,28.12,60.62,43.38,90.31,7.1,13.82,25.28,13.89,32.3,0q23.58-46.54,44.47-94.43c6.79-15.46,15.75-22.58,28.23-18.16,11.8,4.19,16.5,15.35,10.72,30.61C1109,516.44,1096.68,545.9,1084.49,576.17Zm-403.63,636.9c30.94-.07,61.62-3,89.34-17.67,9.62-5.1,16.55-15.27,24.71-23.13-8.07-7.93-14.76-19.14-24.45-23.25-58.33-24.76-117.59-24.65-176-.15-9.74,4.09-16.5,15.26-24.64,23.16,8.07,8,14.85,18.34,24.44,23.36C621.14,1209.46,650.82,1212.85,680.86,1213.07ZM497.73,823.94c30.68-1.08,61.43-3.72,89.08-18.53,9.16-4.91,21.49-14.79,21.63-22.59.13-7.63-12-18.79-21.19-22.74-59.17-25.41-119.23-25.54-178.44-.16-9.3,4-21.58,14.69-21.72,22.48-.15,7.6,12.24,17.79,21.35,22.74C436,820.13,466.76,822.8,497.73,823.94Zm-77.64,594.3c7.15-.54,19-.79,30.65-2.43,24.44-3.44,48.43-8.83,68.45-24.49,12.14-9.49,12.1-17.92.59-27.81a48.33,48.33,0,0,0-11.71-7.85c-61.21-26.66-122.74-26.9-183.72,0-8.46,3.74-20.13,14.59-19.46,21,.86,8.2,11.49,17.52,20.14,22.34C352.93,1414.58,384.07,1417.58,420.09,1418.24ZM620.9,536.35c35.57,0,68.8-5.86,90.51-18.74,8.66-5.14,20.46-14.59,20.45-22.06s-11.61-18.06-20.47-21.95c-60.06-26.4-120.94-26.36-181,0-8.86,3.88-20.45,14.46-20.45,22s11.69,17.27,20.44,22.05C558.38,532.9,589.46,536.13,620.9,536.35ZM303.17,1434.87c0,10.23,1.17,18.86-.22,27.06-4.1,24.11,9.59,35.56,29.07,43.53,32,13.12,65.55,17.1,99.77,14.82,27.87-1.86,55.55-6.12,79.7-21.36,6.94-4.39,14.77-12.21,16.12-19.57,2.56-14,.74-28.73.74-44.33C453.13,1467.73,379.21,1468.12,303.17,1434.87Zm933.34-973.35c-10.29,42.75-29.77,79.81-59.73,113.31,25.25,5.16,46.77,2.47,67.2-7.77,21-10.52,37.62-25.9,36.46-51C1279.21,489.72,1263.38,472.13,1236.51,461.52Z" transform="translate(-261 -331.36)"/><path d="M999.8,1068.15V989.6c-50-5-82.47-40.25-81.41-87.05,1-42.06,28.43-69.07,81.1-80.26,2.48-15.12-4.75-38.41,20.56-38.88,26.61-.5,19.17,23.58,21.65,39.64,36.77,3.42,63.25,20.23,76.3,54.78a83.75,83.75,0,0,1,4.65,23.43c1,14.47-7,24.22-19.09,24.74-11.56.5-19.53-7.53-21.39-21.57-3.22-24.32-15.47-36.68-39.92-39.09V945c55.4,13.83,81,40.5,80.71,84.23-.27,43.43-26.57,70.49-81.1,83-3.14,14.85,5.26,36.87-21,38.89-14.09,1.08-18-6.59-21.84-39.36-6.56-1.3-13.46-2.29-20.15-4.06-34.33-9.09-59.79-40.82-60.56-75.2-.32-13.83,6.82-23,18.59-24s19.89,6.51,22,20.56C962.9,1055.11,976,1068.06,999.8,1068.15Zm41.94.12c24.36-.72,41-18.25,40.39-40.79-.62-22.15-18-38.91-40.39-38.18Zm-42.13-203c-25.9,2.63-42.34,21-40.38,43.38,1.9,21.72,19.52,37.67,40.38,36.24Z" transform="translate(-261 -331.36)"/><path d="M1219.27,1357.08c-20,.44-30-6.6-31-19.56s9.42-21,26.59-22.89c18.65-2.06,37.61-3.93,55.59-8.93,58.43-16.22,92.72-59.46,97.1-120,.17-2.36.24-4.72.37-7.07.92-17.63,9.09-28,21.78-27.66,13.51.36,21.59,12.23,20.38,29.94-6.76,99.2-70.87,164.7-170.11,173.86C1232,1355.53,1224.05,1356.55,1219.27,1357.08Z" transform="translate(-261 -331.36)"/></svg>