<svg id="Layer_1" data-name="Layer 1" xmlns="http://www.w3.org/2000/svg" viewBox="0 0 342.37 408.75"><path d="M1119.19,1128.6c-12.32-4.51-24.61-9.09-37-13.52q-39.18-14-78.41-28c-6.06-2.16-6.81-3.21-6.81-9.52q0-40.5,0-81a28.26,28.26,0,0,1,.07-3.19c.4-3.44,2.88-5.75,6.1-5.56,3.4.19,5.35,2.12,5.77,5.47a33.18,33.18,0,0,1,.1,4c0,25,0,50-.06,75,0,2.78.68,4.17,3.48,5.16,35.18,12.42,70.3,25,105.49,37.42a11.09,11.09,0,0,0,6.79-.08c18.31-6.37,36.54-13,54.79-19.5,5.79-2.07,9.21-1.23,10.56,2.57s-.57,6.74-6.31,8.79q-28.5,10.17-57,20.34c-1.23.44-2.39,1.06-3.59,1.59Z" transform="translate(-944.03 -719.85)"/><path d="M1021.63,914.46c1.65.72,2.68,1.25,3.75,1.63q46.35,16.53,92.74,32.95a9.15,9.15,0,0,0,5.66.19q47.16-16.63,94.23-33.54c.71-.25,1.39-.59,2.94-1.26-6-2.2-11.32-4.09-16.58-6-1.36-.51-3.27-.82-3.86-1.84-1.15-2-2.56-4.79-1.94-6.58s3.5-2.94,5.6-3.91c.85-.39,2.3.34,3.42.74,10.77,3.8,21.56,7.57,32.27,11.53a14.69,14.69,0,0,1,5.23,3.47q19.23,19.73,38.28,39.62c4.9,5.1,3.81,9.65-2.9,12.05q-57,20.4-114.07,40.77c-4,1.46-7,.79-10-2.32-11.54-12.14-23.23-24.15-35-36.3-2.21,2.13-4.35,4.06-6.35,6.12-9.73,10-19.49,20-29.09,30.18-3,3.14-6,3.89-10,2.33-6.81-2.63-13.76-4.91-20.62-7.41-4.51-1.64-6.28-4.54-5.08-8.05,1.27-3.73,4.44-4.88,9.23-3.23,5.53,1.9,11,3.95,16.56,5.75,1,.34,2.83.32,3.47-.33,10.15-10.34,20.17-20.8,30.61-31.63-1.61-.66-2.76-1.19-4-1.61q-49-17.5-97.92-35c-2.59-.93-4.22-.75-6.2,1.35-9.48,10.07-19.16,20-29.2,30.36,1.6.65,2.85,1.21,4.12,1.67q28.15,10,56.31,20.06c.75.27,1.51.51,2.24.82,3.94,1.65,5.57,4.86,4.21,8.21-1.29,3.15-4.5,4.47-8.36,3.1q-35.12-12.43-70.19-25c-5.89-2.12-6.92-6.89-2.54-11.47q19.32-20.17,38.81-40.21a12.84,12.84,0,0,1,4.56-3.1c11.35-4.16,22.75-8.18,34.15-12.18,1.22-.42,3-1,3.81-.41,1.88,1.34,4,3.06,4.75,5.09,1,2.84-1,5.19-3.66,6.27-5.06,2-10.23,3.74-15.34,5.6C1024.6,913.28,1023.43,913.75,1021.63,914.46Zm247.86,40c-9.92-10.27-19.6-20.14-29-30.22-2.1-2.25-3.83-2.41-6.53-1.43-24.1,8.72-48.24,17.31-72.37,25.94-9.59,3.43-19.18,6.83-29.25,10.41,1.21,1.38,2,2.37,2.9,3.29,8.67,9,17.44,17.94,26,27.08,2,2.19,3.69,2.54,6.48,1.54q48.91-17.61,97.9-35C1266.76,955.61,1267.93,955.07,1269.49,954.43Z" transform="translate(-944.03 -719.85)"/><path d="M1075.29,847.76c-5.35,0-9.93-2.91-11.53-8.14-1.55-5.06-2.46-10.32-3.59-15.51-3-14-11.64-22.28-25.53-25.24-4-.86-8.08-1.59-12.1-2.46-6.88-1.5-11-6-11.18-12.15-.2-6.4,3.63-11,10.8-12.79,4.52-1.11,9.12-1.87,13.64-2.92,13.24-3.07,21.25-11.37,24.31-24.54,1.26-5.43,2.2-11,3.83-16.26,1.51-4.89,6.32-7.89,11.33-7.9a12,12,0,0,1,11.39,7.85c1,2.86,1.38,5.95,2.29,8.85,2,6.29,3.27,13,6.34,18.69,4.55,8.49,12.87,12.29,22.16,14,3.79.69,7.59,1.39,11.32,2.34,6.82,1.74,10.63,6.48,10.44,12.7-.18,6-4.2,10.58-10.78,12.08-4.79,1.1-9.66,1.85-14.42,3-12.85,3.22-20.62,11.49-23.53,24.34-1,4.28-1.66,8.61-2.62,12.89C1086.28,843.7,1081.64,847.75,1075.29,847.76Zm0-12c2.93-32.09,20-49,51.8-51.58-13.33-3.3-26.51-5.21-36.58-15.17s-12.2-23.24-15.22-36.27a33.92,33.92,0,0,0-1.68,5.37c-2.23,7.32-3.56,15.13-7,21.81-6.64,12.8-18.38,19-32.31,21.41-3.51.61-7,1.49-10.44,2.24l-.52,1.34C1055.42,786.69,1072.24,803.88,1075.33,835.72Z" transform="translate(-944.03 -719.85)"/><path d="M1259.48,799.09a10.64,10.64,0,0,1-7.31,10.35c-4,1.28-8.25,2-12.39,2.93-10.12,2.26-16.29,8.43-18.44,18.59-.75,3.51-1.35,7-2.27,10.51-1.5,5.62-5.62,9-10.75,9s-9.47-3.45-11-9.27c-.91-3.6-1.49-7.29-2.33-10.91-2.24-9.61-8.23-15.55-17.8-17.84-3.74-.9-7.58-1.45-11.3-2.42-5.56-1.47-8.92-5.7-8.9-10.82s3.38-9.33,9-10.79c3.6-.94,7.29-1.52,10.91-2.34,9.95-2.25,16-8.36,18.22-18.34.79-3.64,1.4-7.32,2.35-10.91,1.47-5.49,5.84-8.89,10.91-8.8s9.12,3.28,10.6,8.67c1,3.58,1.59,7.27,2.37,10.91q3.29,15.23,18.51,18.52c3.76.81,7.58,1.42,11.28,2.47A11,11,0,0,1,1259.48,799.09Zm-51.23,33.68c1.74-8.6,4.64-16.42,10.87-22.68s14.09-9,23-10.64c-4.67-1.46-8.93-2.28-12.68-4.12a38.08,38.08,0,0,1-10.37-7.22,39.74,39.74,0,0,1-7.08-10.47c-1.75-3.62-2.53-7.72-4-12.49-3.07,19.92-14.27,30.79-33.32,34.13C1193.89,802.54,1205,813.61,1208.25,832.77Z" transform="translate(-944.03 -719.85)"/><path d="M1245.39,1037.27c0,13.69-.11,27.38.06,41.08,0,4.35-1.54,7-5.68,8.39-9.55,3.27-19,6.75-28.53,10.08-4.4,1.54-7.83.3-9-3.07-1.25-3.61.44-6.62,4.82-8.23,7.35-2.69,14.69-5.44,22.14-7.84,3.12-1,4.26-2.36,4.24-5.8-.17-24.86-.09-49.72-.09-74.58,0-1.2-.07-2.4,0-3.59.34-3.69,2.84-6,6.22-5.89a5.79,5.79,0,0,1,5.7,6c.16,4.65.06,9.31.07,14Z" transform="translate(-944.03 -719.85)"/><path d="M1127.22,1044.93q0,24.13,0,48.26a19.5,19.5,0,0,1-.18,4,5.92,5.92,0,0,1-11.61.23,17.4,17.4,0,0,1-.24-4q0-48.68,0-97.33a20.28,20.28,0,0,1,.14-3.58c.58-3.15,2.63-5,5.76-5.09,3.31,0,5.47,1.88,6,5.24a25.14,25.14,0,0,1,.12,4Q1127.22,1020.8,1127.22,1044.93Z" transform="translate(-944.03 -719.85)"/><path d="M1021.46,833.15c2.13,1.25,4,1.88,5.19,3.12,21.11,21.61,39.48,45.19,51.82,73a15.44,15.44,0,0,1,1,3c.7,3.19-.59,5.6-3.5,6.75a5.57,5.57,0,0,1-7.27-2.37,11.84,11.84,0,0,1-.93-1.76c-11.24-25.51-27.94-47.22-46.92-67.34-1.36-1.45-3.14-2.78-3.83-4.51a8.38,8.38,0,0,1-.25-5.92C1017.5,835.54,1019.71,834.57,1021.46,833.15Z" transform="translate(-944.03 -719.85)"/><path d="M1136.73,896.32c1.66-12.93,3.36-26.24,5.09-39.54q2.17-16.59,4.42-33.17c.65-4.74,3.08-7,6.88-6.49s5.66,3.42,5.07,8q-4.7,36.36-9.49,72.7c-.52,3.91-3.35,6.32-6.66,6S1136.61,900.76,1136.73,896.32Z" transform="translate(-944.03 -719.85)"/><path d="M1208.62,861.68c-1.21,2.28-1.84,4.05-2.94,5.45-11.75,15-22.37,30.71-29.94,48.32-1.62,3.77-4.93,5-8.14,3.6s-4.35-4.95-2.69-8.82a206.21,206.21,0,0,1,26.32-44c2.1-2.73,3.94-5.82,6.54-8a7.92,7.92,0,0,1,6.41-1.19C1205.9,857.55,1207.07,860,1208.62,861.68Z" transform="translate(-944.03 -719.85)"/><path d="M1107.21,869.88c0,8.63,0,17.25,0,25.88,0,5.27-2.22,8.14-6.12,8.08s-5.89-2.82-5.9-7.86q0-26.09,0-52.16c0-5,2.68-7.88,6.66-7.42,3.35.38,5.31,2.91,5.34,7.2C1107.25,852.36,1107.21,861.12,1107.21,869.88Z" transform="translate(-944.03 -719.85)"/><path d="M973.62,792.49c0-2.79-.2-5.59,0-8.36.31-3.36,2.36-5.31,5.81-5.32s5.66,2,5.82,5.3c.27,5.69.25,11.41,0,17.1-.15,3.4-2.5,5.4-5.81,5.39-3.52,0-5.66-2.19-5.91-5.75-.2-2.77,0-5.57,0-8.36Z" transform="translate(-944.03 -719.85)"/><path d="M985.4,835.89c0,2.79.19,5.59,0,8.36-.29,3.38-2.45,5.26-5.77,5.51a5.72,5.72,0,0,1-6-5.71c-.24-5.57-.21-11.16,0-16.72.15-3.35,2.27-5.36,5.73-5.41s5.56,1.87,5.89,5.23c.29,2.89.06,5.83.06,8.74Z" transform="translate(-944.03 -719.85)"/><path d="M957.91,820.3c-2.52,0-5.06.14-7.57,0-4-.26-6.42-2.76-6.3-6.26s2.43-5.61,6.34-5.71q7.57-.19,15.14,0c3.87.11,6.24,2.4,6.34,5.75s-2.24,5.88-6,6.19c-2.64.22-5.31,0-8,0Z" transform="translate(-944.03 -719.85)"/><path d="M1001.22,808.35c2.79,0,5.58-.16,8.36,0,3.24.22,5.1,2.26,5.32,5.42s-1.37,5.85-4.5,6.06a141.54,141.54,0,0,1-18.65,0c-3.12-.2-4.76-2.82-4.55-6,.23-3.4,2.25-5.34,5.65-5.53,2.78-.15,5.58,0,8.37,0Z" transform="translate(-944.03 -719.85)"/></svg>